<?xml version="1.0" standalone="no"?>
<!DOCTYPE svg PUBLIC "-//W3C//DTD SVG 20010904//EN"
 "http://www.w3.org/TR/2001/REC-SVG-20010904/DTD/svg10.dtd">
<svg version="1.0" xmlns="http://www.w3.org/2000/svg"
 width="428.000000pt" height="433.000000pt" viewBox="0 0 428.000000 433.000000"
 preserveAspectRatio="xMidYMid meet">

<g transform="translate(0.000000,433.000000) scale(0.100000,-0.100000)"
fill="#000000" stroke="none">
<path d="M1930 4125 c-184 -22 -271 -41 -435 -97 -514 -176 -950 -568 -1180
-1061 -147 -314 -214 -677 -186 -1009 12 -146 17 -183 47 -318 26 -117 85
-283 143 -405 109 -228 220 -385 405 -571 301 -303 662 -487 1116 -571 135
-25 516 -25 645 1 369 73 665 204 930 410 96 74 279 261 355 362 379 501 507
1108 364 1714 -234 991 -1194 1665 -2204 1545z m411 -155 c48 -5 103 -15 122
-24 79 -33 84 -130 9 -181 -20 -14 -46 -25 -57 -25 -11 0 -26 -4 -34 -9 -10
-6 -4 -12 21 -20 38 -13 77 -50 100 -94 l15 -29 66 94 c37 51 91 120 120 153
l54 60 58 -19 c32 -10 77 -26 100 -36 l43 -18 7 -76 c7 -71 -9 -349 -22 -382
-3 -8 -13 -14 -23 -14 -21 0 -132 38 -143 49 -4 4 -3 29 4 55 14 55 4 72 -47
82 -41 8 -60 -6 -69 -47 -9 -40 -25 -45 -88 -23 -28 9 -95 22 -147 28 l-95 11
-8 64 c-9 76 -31 124 -55 119 -14 -3 -18 -17 -20 -83 -2 -44 -7 -84 -12 -89
-9 -9 -140 2 -160 14 -11 7 -11 29 -1 127 20 187 41 317 53 324 11 7 46 5 209
-11z m-303 -37 c25 -119 26 -123 6 -123 -11 0 -28 7 -38 15 -28 21 -134 20
-158 -2 -42 -38 -6 -65 71 -52 25 4 54 10 63 14 20 8 32 -13 42 -69 l7 -38
-50 7 c-31 4 -64 2 -86 -5 -30 -10 -35 -16 -35 -42 0 -17 8 -52 17 -79 13 -35
15 -51 6 -60 -6 -6 -45 -15 -88 -21 -86 -11 -94 -7 -95 47 -1 29 -2 28 -25
-17 -27 -52 -58 -77 -139 -114 -123 -56 -219 -38 -272 52 -28 48 -94 244 -94
281 0 17 12 27 48 43 26 12 61 24 79 27 30 5 32 4 43 -38 51 -199 82 -252 139
-234 46 14 33 78 -44 220 l-46 84 23 15 c28 19 104 46 127 46 17 0 71 -90 117
-197 l25 -58 -5 55 c-17 178 -18 227 -6 235 14 9 279 53 327 54 30 1 32 -2 41
-46z m305 -578 c133 -21 199 -40 317 -91 282 -121 519 -353 648 -634 131 -286
149 -636 47 -936 -32 -94 -110 -245 -171 -330 -54 -76 -179 -205 -259 -265
-142 -109 -336 -197 -517 -236 -123 -27 -400 -24 -523 4 -464 108 -820 447
-951 908 -19 67 -44 254 -44 330 0 75 25 262 44 330 96 344 338 640 654 799
233 118 506 161 755 121z m-1365 -67 c8 -8 -2 -26 -42 -72 -185 -214 -299
-423 -370 -676 -47 -171 -66 -402 -46 -585 18 -162 18 -169 -1 -173 -14 -2
-19 12 -29 80 -18 124 -15 412 5 533 43 253 146 495 301 709 50 69 157 196
165 196 3 0 10 -5 17 -12z m2549 -135 c285 -417 375 -839 281 -1321 -22 -118
-35 -147 -55 -134 -9 6 -10 17 -3 43 42 152 63 491 41 651 -38 268 -142 525
-302 747 -47 65 -57 86 -48 97 6 8 15 12 19 9 4 -3 35 -44 67 -92z m-2623
-1728 c88 -132 108 -178 104 -235 -3 -49 -3 -49 19 -35 12 8 27 15 32 15 15 0
121 -101 121 -115 0 -8 -28 -35 -62 -61 -86 -65 -117 -94 -134 -126 -13 -25
-13 -32 1 -58 8 -16 35 -41 60 -56 36 -21 52 -25 84 -19 25 4 41 2 46 -5 9
-15 -103 -160 -124 -160 -25 0 -311 259 -311 282 0 7 33 47 72 88 39 41 87 92
107 113 l36 38 -30 -11 c-67 -26 -160 14 -224 95 -39 49 -43 49 -105 -10 -21
-20 -45 -34 -52 -31 -15 6 -93 125 -94 143 0 6 12 20 28 31 48 34 345 202 357
202 7 0 38 -38 69 -85z m2623 30 c66 -38 78 -59 41 -70 -31 -10 -94 -71 -109
-107 -10 -25 -9 -32 4 -45 15 -15 18 -15 37 2 11 10 33 42 50 71 17 30 34 54
38 54 4 0 20 -11 36 -23 l29 -24 -41 -41 c-46 -46 -61 -84 -42 -107 31 -38 98
3 121 74 6 19 8 54 5 81 -4 27 -3 51 2 54 11 6 142 -65 155 -85 7 -12 -13 -51
-83 -165 -119 -190 -121 -193 -144 -194 -15 0 -165 97 -306 198 -21 15 -2 -9
45 -59 44 -46 101 -107 127 -134 61 -64 70 -104 35 -139 -33 -33 -88 -34 -179
-6 -126 40 -139 20 -46 -70 l62 -60 -57 -55 c-31 -30 -65 -55 -74 -55 -26 1
-283 313 -283 343 0 18 75 87 95 87 8 0 48 -11 89 -25 83 -28 126 -32 126 -11
0 7 -25 37 -55 65 -30 29 -55 59 -55 66 0 8 23 33 52 55 28 23 60 58 71 78 44
83 174 282 184 282 3 0 35 -16 70 -35z m-1978 -640 l93 -45 -6 -88 c-13 -163
-59 -382 -81 -382 -9 0 -128 60 -142 72 -10 8 -10 16 2 39 26 49 20 77 -21 96
-43 21 -61 12 -87 -40 -9 -21 -19 -37 -22 -37 -19 0 -155 72 -155 82 0 35 283
348 314 348 7 0 54 -20 105 -45z m1346 14 c57 -14 128 -77 159 -138 67 -132
29 -234 -112 -303 -57 -27 -78 -32 -143 -33 -67 0 -80 3 -110 26 -45 34 -89
122 -96 191 -12 122 59 220 187 254 58 16 62 16 115 3z m-1037 -118 c26 -7 27
-10 32 -94 8 -136 33 -137 75 -5 14 43 29 73 37 73 7 0 49 -4 93 -8 61 -6 112
-3 215 13 74 11 156 20 181 20 50 0 59 -10 59 -69 0 -20 -80 -149 -141 -230
-53 -68 66 -50 124 19 28 33 42 37 50 16 10 -25 31 -176 25 -181 -6 -6 -249
-42 -349 -51 -80 -8 -89 -3 -89 57 0 35 29 84 137 231 29 40 32 49 19 54 -29
11 -86 -7 -122 -38 -40 -36 -51 -30 -56 27 l-3 40 -28 -47 c-30 -52 -77 -93
-119 -103 -27 -7 -27 -8 -30 -103 l-3 -97 -67 3 c-84 3 -118 15 -118 41 0 11
12 52 26 92 l26 71 -37 31 c-45 37 -73 100 -82 180 -5 45 -3 61 8 68 14 9 84
4 137 -10z"/>
<path d="M2265 3809 c-9 -40 5 -54 41 -42 59 20 59 73 0 73 -30 0 -35 -4 -41
-31z"/>
<path d="M2771 3676 c-18 -30 -30 -59 -27 -64 11 -19 46 -21 55 -4 11 23 22
122 13 122 -4 0 -23 -25 -41 -54z"/>
<path d="M1975 3270 c-281 -51 -540 -196 -713 -400 -124 -148 -198 -293 -253
-500 -29 -108 -37 -335 -15 -457 56 -320 230 -592 499 -781 190 -133 415 -202
662 -202 323 0 603 115 832 341 225 222 342 505 343 826 0 198 -36 365 -114
522 -160 325 -448 551 -811 637 -81 19 -351 28 -430 14z m941 -469 c65 -39 65
-43 62 -523 -3 -431 -3 -433 -26 -480 -31 -62 -64 -93 -397 -368 -301 -250
-324 -267 -371 -276 -69 -13 -99 7 -415 266 -167 138 -325 273 -350 300 -79
83 -79 82 -79 578 0 382 2 437 16 461 38 64 -3 60 799 61 697 0 731 -1 761
-19z"/>
<path d="M1428 2774 c-58 -31 -58 -34 -58 -498 0 -395 1 -427 19 -468 10 -24
32 -57 48 -75 15 -17 165 -145 332 -282 345 -284 364 -295 453 -253 34 16 187
139 532 429 99 82 137 121 160 163 l31 55 3 419 c3 453 3 457 -50 501 l-30 25
-706 0 c-606 -1 -711 -3 -734 -16z m732 -121 c0 -5 -7 -17 -15 -27 -23 -30
-18 -99 11 -163 27 -59 35 -129 21 -173 l-8 -25 20 24 c31 34 26 83 -15 166
-24 49 -34 82 -32 105 l3 34 39 -65 c77 -126 88 -151 83 -193 -4 -25 -16 -50
-38 -72 l-33 -34 37 0 c31 0 37 -4 37 -21 0 -11 -13 -37 -29 -57 -23 -29 -32
-57 -45 -132 -25 -150 -37 -278 -35 -363 2 -61 -2 -83 -14 -98 -21 -24 -33
-24 -54 0 -12 15 -16 36 -14 83 3 79 -14 252 -37 382 -13 73 -23 105 -40 124
-26 28 -44 67 -35 76 4 3 20 6 37 6 l30 0 -26 28 c-33 34 -43 82 -28 127 13
39 30 38 30 -2 0 -29 32 -78 62 -94 16 -9 19 -8 12 3 -56 90 -74 127 -74 152
0 32 33 96 49 96 5 0 12 15 15 34 4 21 19 45 37 60 30 26 49 33 49 19z"/>
<path d="M2061 2498 c-1 -21 11 -63 29 -101 17 -36 30 -82 30 -104 0 -28 3
-34 10 -23 18 28 10 77 -21 136 -16 32 -34 74 -39 94 l-8 35 -1 -37z"/>
<path d="M772 1289 c-30 -20 -32 -23 -19 -43 20 -29 61 -43 81 -26 19 15 20
49 2 73 -17 22 -24 21 -64 -4z"/>
<path d="M1430 639 c-33 -49 -34 -51 -15 -65 26 -20 38 -13 51 27 34 105 20
120 -36 38z"/>
<path d="M2776 668 c-22 -30 -20 -63 5 -115 23 -48 55 -63 94 -45 49 23 40
109 -16 157 -38 31 -63 32 -83 3z"/>
</g>
</svg>
